<svg width="22" height="22" viewBox="0 0 22 22" fill="none" xmlns="http://www.w3.org/2000/svg">
<path d="M11.0001 21.3022C16.4449 21.3022 20.8589 16.8883 20.8589 11.4434C20.8589 5.9986 16.4449 1.58469 11.0001 1.58469C5.55527 1.58469 1.14136 5.9986 1.14136 11.4434C1.14136 16.8883 5.55527 21.3022 11.0001 21.3022Z" fill="#D68F30"/>
<path d="M1.81152 14.0044V15.0116C1.91465 15.278 2.0298 15.5409 2.15527 15.7953V14.0044H1.81152ZM2.93559 15.9002V17.1102C3.07309 17.3044 3.21574 17.4952 3.36527 17.6791V15.9002H2.93559ZM4.42402 17.4814V18.7859C4.59074 18.9355 4.76262 19.0781 4.93965 19.2156V17.4814H4.42402ZM6.25621 18.6828V20.0853C6.42465 20.1781 6.59652 20.2658 6.77184 20.35V18.6828H6.25621ZM8.33418 19.4477V20.9327C8.50434 20.9808 8.67621 21.0238 8.8498 21.0633V19.4477H8.33418ZM10.7662 19.7123V21.2953C10.8436 21.297 10.9209 21.3005 11 21.3005C11.0945 21.3005 11.189 21.2953 11.2818 21.2936V19.7123H10.7662ZM13.1982 19.4356V21.0513C13.3718 21.0117 13.5437 20.967 13.7139 20.9189V19.4356H13.1982ZM15.2711 18.6605V20.3294C15.4464 20.2452 15.6182 20.1541 15.7867 20.0595V18.6605H15.2711ZM17.0981 17.4487V19.1847C17.275 19.0464 17.447 18.902 17.6137 18.7516V17.4487H17.0981ZM19.0936 15.8623H18.6639V17.6412C18.8134 17.4556 18.9578 17.2648 19.0936 17.0689V15.8623ZM20.2107 13.9597H19.867V15.7541C19.9925 15.4945 20.1076 15.2281 20.2107 14.9583V13.9597Z" fill="#BC6F00"/>
<path d="M11.0001 20.4153C16.4449 20.4153 20.8589 16.0014 20.8589 10.5566C20.8589 5.11173 16.4449 0.697815 11.0001 0.697815C5.55527 0.697815 1.14136 5.11173 1.14136 10.5566C1.14136 16.0014 5.55527 20.4153 11.0001 20.4153Z" fill="#FFF176"/>
<path d="M11 19.537C15.9598 19.537 19.9805 15.5163 19.9805 10.5566C19.9805 5.59677 15.9598 1.57608 11 1.57608C6.04022 1.57608 2.01953 5.59677 2.01953 10.5566C2.01953 15.5163 6.04022 19.537 11 19.537Z" fill="#F2BC1A"/>
<path d="M2.00238 10.9003C1.93879 9.7178 2.14332 8.51812 2.55582 7.39405C2.98551 6.27343 3.64379 5.23702 4.47394 4.35702C6.14113 2.59359 8.56113 1.57093 11 1.5589C13.4389 1.57265 15.8607 2.59359 17.5244 4.35874C18.3563 5.23702 19.0129 6.27515 19.4425 7.39405C19.8568 8.51983 20.0613 9.7178 19.996 10.9003H19.9616C19.9582 9.72066 19.7247 8.55301 19.2741 7.4628C18.8227 6.37383 18.1636 5.38316 17.3336 4.54609C16.5031 3.70984 15.5161 3.04523 14.4289 2.59015C13.3421 2.13637 12.1761 1.90272 10.9983 1.90272C9.82057 1.90272 8.65452 2.13637 7.5677 2.59015C6.48051 3.04523 5.49352 3.70984 4.66301 4.54609C3.83244 5.3827 3.17328 6.37349 2.72254 7.4628C2.27195 8.55301 2.03842 9.72066 2.03504 10.9003H2.00238Z" fill="#E08F00"/>
<path d="M11.0001 0.699524C5.55511 0.699524 1.14136 5.11327 1.14136 10.5583C1.14136 16.0033 5.55511 20.417 11.0001 20.417C16.4451 20.417 20.8589 16.0033 20.8589 10.5583C20.8589 5.11327 16.4451 0.699524 11.0001 0.699524ZM11.0001 19.5387C6.03979 19.5387 2.01964 15.5186 2.01964 10.5583C2.01964 5.59624 6.03979 1.57609 11.0001 1.57609C15.9604 1.57609 19.9806 5.59624 19.9806 10.5566C19.9806 15.5169 15.9604 19.5387 11.0001 19.5387Z" fill="#FFF176"/>
<path d="M6.52952 3.66953L6.7478 4.34499L7.45937 4.07343V4.34499L6.88358 4.76265L7.10359 5.16484V5.43881L0.170146 5.02046L5.95374 5.43812V5.16484L6.17374 4.76265L5.59968 4.34499V4.07343L6.30952 4.34499L6.52952 3.66953ZM3.78296 7.54703L4.00296 8.22249L4.7128 7.95093V8.22249L4.13874 8.64015L4.35874 9.04406V9.3194L0.00170898 8.89796L3.2089 9.31562V9.04406L3.4289 8.64015L2.85312 8.22249V7.95093L3.56468 8.22249L3.78296 7.54703ZM3.70218 12.3269L3.92218 13.0023L4.63202 12.7308V13.0023L4.05796 13.42L4.27796 13.8239V14.0958L0.0928027 13.6778L3.12812 14.0955V13.8239L3.34812 13.42L2.77233 13.0023V12.7308L3.4839 13.0023L3.70218 12.3269ZM6.63437 16.1219L6.85437 16.7973L7.56421 16.5258V16.7973L6.99015 17.215L7.21015 17.6172V17.8912L0.103115 17.4728L6.0603 17.8905V17.6172L6.2803 17.215L5.70452 16.7973V16.5258L6.41609 16.7973L6.63437 16.1219Z" fill="#D38200"/>
<path d="M15.4705 3.66953L15.2522 4.34499L14.5406 4.07343V4.34499L15.1164 4.76265L14.8964 5.16484V5.43967L0.00170898 5.02046L16.0462 5.43812V5.16484L15.8262 4.76265L16.4003 4.34499V4.07343L15.6905 4.34499L15.4705 3.66953ZM18.217 7.54702L17.997 8.22249L17.2872 7.95093V8.22249L17.8612 8.64015L17.6412 9.04423L0.10999 9.31562L18.217 8.89796L18.7911 9.31562V9.04406L18.5711 8.64015L19.1469 8.22249V7.95093L18.4353 8.22249L18.217 7.54702ZM18.2978 12.3269L18.0778 13.0023L17.368 12.7308V13.0023L17.942 13.42L17.722 13.8241L0.0188965 14.0955L18.2978 13.6778L18.8719 14.0955V13.8239L18.6519 13.42L19.2276 13.0023V12.7308L18.5161 13.0023L18.2978 12.3269ZM15.3656 16.1219L15.1456 16.7973L14.4358 16.5258V16.7973L15.0098 17.215L14.7898 17.6172V17.892L0.0687402 17.4728L15.9397 17.8905V17.6172L15.7197 17.215L16.2955 16.7973V16.5258L15.5839 16.7973L15.3656 16.1219Z" fill="#D38200"/>
<path d="M15.3655 15.8486L15.5838 16.5241H16.2954L15.7196 16.9417L15.9396 17.6172L15.3655 17.1995L14.7898 17.6321L0.0566406 16.9417L14.4357 16.5241H15.1455L15.3655 15.8486ZM18.2977 12.0553L18.516 12.7308H19.2276L18.6518 13.1484L18.8718 13.8239L18.2977 13.4062L17.722 13.8241L0.0669531 13.1484L17.3679 12.7308H18.0777L18.2977 12.0553ZM18.217 7.27546L18.4352 7.95093H19.1468L18.571 8.36858L18.791 9.04405L18.217 8.62657L0.109922 9.04405L17.8612 8.36858L17.2871 7.95093H17.997L18.217 7.27546ZM15.4704 3.39624L15.6904 4.07171H16.4002L15.8262 4.48937L16.0462 5.16483L15.4704 4.74718L14.8963 5.16638L0.163203 4.48937L14.5405 4.07171H15.2521L15.4704 3.39624Z" fill="#FFF176"/>
<path d="M11.0087 17.6172L11.2287 18.2927L11.9385 18.0211V18.2927L11.3645 18.7103L11.5845 19.1154L0.0688477 19.3858L11.0087 18.9681L10.4346 19.3858V19.1142L10.6546 18.7103L10.0788 18.2927V18.0211L10.7904 18.2927L11.0087 17.6172Z" fill="#D38200"/>
<path d="M11.0086 17.2563L11.2286 17.9317H11.9385L11.3644 18.3494L11.5844 19.0249L11.0086 18.6082L0.12207 19.0249L10.6546 18.3494L10.0788 17.9317H10.7904L11.0086 17.2563Z" fill="#FFF176"/>
<path d="M11.0085 2.21545L11.2285 2.89092L11.9384 2.61936V2.89092L11.3643 3.30858L11.5843 3.71249V3.98508L0.00854492 3.56639L10.4345 3.98405V3.71249L10.6545 3.30858L10.0787 2.89092V2.61936L10.7903 2.89092L11.0085 2.21545Z" fill="#D38200"/>
<path d="M11.0085 1.94391L11.2285 2.61938H11.9384L11.3643 3.03703L11.5843 3.7125L11.0085 3.29485L10.4345 3.72299L0.170078 3.03703L10.0787 2.61938H10.7902L11.0085 1.94391ZM6.6343 15.8486L6.41602 16.5241H5.70445L6.28023 16.9417L6.06023 17.6172L6.6343 17.1995L7.21008 17.6241L0.115078 16.9417L7.56414 16.5241H6.8543L6.6343 15.8486ZM3.70211 12.0553L3.48383 12.7308H2.77227L3.34805 13.1484L3.12805 13.8239L3.70211 13.4063L4.27789 13.8243L0.104766 13.1484L4.63195 12.7308H3.92211L3.70211 12.0553ZM3.78289 7.27547L3.56461 7.95094H2.85305L3.42883 8.3686L3.20883 9.04406L3.78289 8.62641L4.35867 9.04441L0.0136719 8.3686L4.71273 7.95094H4.00289L3.78289 7.27547Z" fill="#FFF176"/>
<path d="M6.52948 3.39624L6.30948 4.07171H5.59964L6.1737 4.48937L5.9537 5.16483L6.52948 4.74718L7.10355 5.16552L0.00854492 4.48937L7.45933 4.07171H6.74776L6.52948 3.39624Z" fill="#FFF176"/>
<path d="M16.366 8.28437C16.366 8.22421 5.64443 8.28437 5.64443 8.28437L5.54818 8.57312V9.0664C5.54818 9.15577 5.62037 9.22796 5.70975 9.22796H16.2904C16.3797 9.22796 16.4519 9.15577 16.4519 9.0664V8.58687L16.366 8.28437ZM16.3815 14.6953H5.68912L4.97412 15.0545L4.98271 15.5169C4.98443 15.5667 5.02568 15.608 5.07725 15.608H16.9246C16.9744 15.608 17.0174 15.5684 17.0191 15.5169L17.0277 15.0631L16.3815 14.6953Z" fill="#D38200"/>
<path d="M7.41286 13.2894H6.79755C6.69614 13.2894 6.61364 12.9697 6.61364 12.8683L7.59505 12.8373C7.59505 12.9387 7.51255 13.2894 7.41286 13.2894ZM7.62255 9.97046H6.58614C6.5088 9.97046 6.44177 9.9189 6.41942 9.84499L6.33864 9.16953H7.8563L7.78755 9.84499C7.76692 9.9189 7.69989 9.97046 7.62255 9.97046ZM6.58614 13.4939H7.62255C7.69989 13.4939 7.85286 13.542 7.87349 13.6159C7.87349 13.6159 7.86833 13.9373 7.86833 14.0645C7.86833 14.1917 7.81677 14.2845 7.70161 14.2845H6.50708C6.39192 14.2845 6.34036 14.1814 6.34036 14.0645C6.34036 13.9477 6.33521 13.6194 6.33521 13.6194C6.35755 13.5455 6.5088 13.4939 6.58614 13.4939ZM15.405 13.2894H14.7897C14.6883 13.2894 14.6058 12.9697 14.6058 12.8683L15.5872 12.8373C15.5872 12.9387 15.5065 13.2894 15.405 13.2894ZM15.6147 9.97046H14.5783C14.501 9.97046 14.434 9.9189 14.4116 9.84499L14.3308 9.16953H15.8485L15.7797 9.84499C15.7591 9.9189 15.6921 9.97046 15.6147 9.97046ZM14.5783 13.4939H15.6147C15.6921 13.4939 15.845 13.542 15.8657 13.6159C15.8657 13.6159 15.8605 13.9373 15.8605 14.0645C15.8605 14.1917 15.809 14.2845 15.6938 14.2845H14.4993C14.3841 14.2845 14.3325 14.1814 14.3325 14.0645C14.3325 13.9477 14.3274 13.6194 14.3274 13.6194C14.3497 13.5455 14.501 13.4939 14.5783 13.4939ZM12.741 13.2894H12.1257C12.0243 13.2894 11.9418 12.9697 11.9418 12.8683L12.9232 12.8373C12.9232 12.9387 12.8424 13.2894 12.741 13.2894ZM12.9507 9.97046H11.9143C11.8369 9.97046 11.7699 9.9189 11.7475 9.84499L11.6668 9.16953H13.1844L13.1157 9.84499C13.095 9.9189 13.028 9.97046 12.9507 9.97046ZM11.9143 13.4939H12.9507C13.028 13.4939 13.181 13.542 13.2016 13.6159C13.2016 13.6159 13.1965 13.9373 13.1965 14.0645C13.1965 14.1917 13.1449 14.2845 13.0297 14.2845H11.8352C11.72 14.2845 11.6685 14.1814 11.6685 14.0645C11.6685 13.9477 11.6633 13.6194 11.6633 13.6194C11.6857 13.5455 11.8369 13.4939 11.9143 13.4939ZM10.0769 13.2894H9.46161C9.36021 13.2894 9.27771 12.9697 9.27771 12.8683L10.2591 12.8373C10.2591 12.9387 10.1783 13.2894 10.0769 13.2894ZM10.2866 9.97046H9.25021C9.17286 9.97046 9.10583 9.9189 9.08349 9.84499L9.00271 9.16953H10.5204L10.4516 9.84499C10.431 9.9189 10.364 9.97046 10.2866 9.97046ZM9.25021 13.4939H10.2866C10.364 13.4939 10.5169 13.542 10.5375 13.6159C10.5375 13.6159 10.5324 13.9373 10.5324 14.0645C10.5324 14.1917 10.4808 14.2845 10.3657 14.2845H9.17114C9.05599 14.2845 9.00442 14.1814 9.00442 14.0645C9.00442 13.9477 8.99927 13.6194 8.99927 13.6194C9.02161 13.5455 9.17286 13.4939 9.25021 13.4939Z" fill="#D38200"/>
<path d="M16.4433 7.82374C16.4433 7.76358 16.4123 7.70686 16.3659 7.67936L11.0068 4.63718L5.64091 7.67593C5.58935 7.70686 5.55669 7.76358 5.55669 7.82374L5.5481 8.57483C5.5481 8.66936 5.62544 8.74671 5.71997 8.74671H16.2783C16.3728 8.74671 16.4501 8.66936 16.4501 8.57483L16.4433 7.82374Z" fill="#FFF176"/>
<path d="M15.0976 7.61923L11.0001 5.29376L6.90259 7.61923H15.0976Z" fill="#F2BC1A"/>
<path d="M13.5901 7.33563L11 5.86438L8.40983 7.33563H13.5901ZM16.0514 14.0972H5.94858C5.84889 14.0972 5.75436 14.1402 5.68733 14.2141L4.99295 14.9892C4.94483 15.0425 4.98264 15.1267 5.05483 15.1267H16.9451C17.0156 15.1267 17.0534 15.0425 17.007 14.9892L16.3109 14.2141C16.2456 14.1402 16.1494 14.0972 16.0514 14.0972ZM15.4051 12.9783H14.7898C14.6884 12.9783 14.6059 12.8958 14.6059 12.7944V10.0478C14.6059 9.94641 14.6884 9.86391 14.7898 9.86391H15.4051C15.5065 9.86391 15.589 9.94641 15.589 10.0478V12.7961C15.589 12.8975 15.5065 12.9783 15.4051 12.9783ZM15.6165 9.65938H14.5801C14.5028 9.65938 14.4358 9.60782 14.4134 9.53391L14.3344 9.26063C14.3017 9.15063 14.3859 9.04063 14.5011 9.04063H15.6956C15.8108 9.04063 15.8933 9.15063 15.8623 9.26063L15.7833 9.53391C15.7609 9.60782 15.6922 9.65938 15.6165 9.65938ZM14.5784 13.1845H15.6148C15.6922 13.1845 15.7592 13.2361 15.7815 13.31L15.8606 13.5833C15.8933 13.6933 15.809 13.8033 15.6939 13.8033H14.4994C14.3842 13.8033 14.3017 13.6933 14.3326 13.5833L14.4117 13.31C14.434 13.2344 14.5028 13.1845 14.5784 13.1845ZM7.41295 12.9783H6.79764C6.69623 12.9783 6.61373 12.8958 6.61373 12.7944V10.0478C6.61373 9.94641 6.69623 9.86391 6.79764 9.86391H7.41295C7.51436 9.86391 7.59686 9.94641 7.59686 10.0478V12.7961C7.59514 12.8975 7.51264 12.9783 7.41295 12.9783ZM7.62264 9.65938H6.58623C6.50889 9.65938 6.44186 9.60782 6.41951 9.53391L6.34045 9.26063C6.3078 9.15063 6.39202 9.04063 6.50717 9.04063H7.7017C7.81686 9.04063 7.89936 9.15063 7.86842 9.26063L7.78936 9.53391C7.76701 9.60782 7.69998 9.65938 7.62264 9.65938ZM6.58623 13.1845H7.62264C7.69998 13.1845 7.76701 13.2361 7.78936 13.31L7.86842 13.5833C7.90108 13.6933 7.81686 13.8033 7.7017 13.8033H6.50717C6.39202 13.8033 6.30952 13.6933 6.34045 13.5833L6.41951 13.31C6.44186 13.2344 6.50889 13.1845 6.58623 13.1845ZM10.077 12.9783H9.4617C9.3603 12.9783 9.2778 12.8958 9.2778 12.7944V10.0478C9.2778 9.94641 9.3603 9.86391 9.4617 9.86391H10.077C10.1784 9.86391 10.2609 9.94641 10.2609 10.0478V12.7961C10.2605 12.8446 10.2409 12.8909 10.2065 12.925C10.172 12.9591 10.1255 12.9783 10.077 12.9783ZM10.2867 9.65938H9.2503C9.17295 9.65938 9.10592 9.60782 9.08358 9.53391L9.00451 9.26063C8.97186 9.15063 9.05608 9.04063 9.17123 9.04063H10.3658C10.4809 9.04063 10.5634 9.15063 10.5325 9.26063L10.4534 9.53391C10.4311 9.60782 10.364 9.65938 10.2867 9.65938ZM9.2503 13.1845H10.2867C10.364 13.1845 10.4311 13.2361 10.4534 13.31L10.5325 13.5833C10.5651 13.6933 10.4809 13.8033 10.3658 13.8033H9.17123C9.05608 13.8033 8.97358 13.6933 9.00451 13.5833L9.08358 13.31C9.10592 13.2344 9.17295 13.1845 9.2503 13.1845ZM12.7411 12.9783H12.1258C12.0244 12.9783 11.9419 12.8958 11.9419 12.7944V10.0478C11.9419 9.94641 12.0244 9.86391 12.1258 9.86391H12.7411C12.8425 9.86391 12.925 9.94641 12.925 10.0478V12.7961C12.9245 12.8446 12.905 12.8909 12.8705 12.925C12.8361 12.9591 12.7896 12.9783 12.7411 12.9783ZM12.9508 9.65938H11.9144C11.837 9.65938 11.77 9.60782 11.7476 9.53391L11.6686 9.26063C11.6359 9.15063 11.7201 9.04063 11.8353 9.04063H13.0298C13.145 9.04063 13.2275 9.15063 13.1965 9.26063L13.1175 9.53391C13.0951 9.60782 13.0281 9.65938 12.9508 9.65938ZM11.9144 13.1845H12.9508C13.0281 13.1845 13.0951 13.2361 13.1175 13.31L13.1965 13.5833C13.2292 13.6933 13.145 13.8033 13.0298 13.8033H11.8353C11.7201 13.8033 11.6376 13.6933 11.6686 13.5833L11.7476 13.31C11.77 13.2344 11.8387 13.1845 11.9144 13.1845Z" fill="#FFF176"/>
</svg>
